<svg width="77" height="22" viewBox="0 0 77 22" fill="none" xmlns="http://www.w3.org/2000/svg">
<path d="M0.63 -1.43051e-06H16.23L16.53 5.94H15.99C15.15 3.92 14.27 2.54 13.35 1.8C12.43 1.04 11.08 0.659999 9.3 0.659999H8.25V9.93H9.27C10.21 9.93 11 9.58 11.64 8.88C12.28 8.16 12.73 7.2 12.99 6H13.44V14.88H12.93C12.57 13.38 12.08 12.31 11.46 11.67C10.86 11.03 10.03 10.71 8.97 10.71H8.25V20.34H9.39C11.23 20.34 12.79 19.79 14.07 18.69C15.37 17.59 16.26 16.18 16.74 14.46H17.34L17.1 21H0.63V20.34H2.4V0.659999H0.63V-1.43051e-06ZM19.3507 -1.43051e-06H34.9507L35.2507 6.24H34.7107C33.9707 4.08 33.1107 2.61 32.1307 1.83C31.1707 1.05 29.7307 0.659999 27.8107 0.659999H26.9707V10.41H28.3207C29.2807 10.41 30.0807 10.06 30.7207 9.36C31.3607 8.66 31.8007 7.7 32.0407 6.48H32.4907V15.36H31.9807C31.6607 13.86 31.2107 12.79 30.6307 12.15C30.0707 11.51 29.3007 11.19 28.3207 11.19H26.9707V20.34H30.6907V21H19.3507V20.34H21.1207V0.659999H19.3507V-1.43051e-06ZM37.1046 -1.43051e-06H47.9046V0.659999H44.7246V20.34H45.8046C47.5046 20.34 48.8546 19.82 49.8546 18.78C50.8746 17.74 51.9046 16.14 52.9446 13.98H53.5746L53.0046 21H37.1046V20.34H38.8746V0.659999H37.1046V-1.43051e-06ZM64.8434 15.57L70.0634 0.569998H67.7234V-1.43051e-06H72.3134V0.569998H70.9034L63.6734 21.3H61.1534L53.5034 0.569998H52.1234V-1.43051e-06H61.9334V0.569998H59.8034L64.8434 15.57ZM73.7152 21.3C72.8552 21.3 72.2052 21.05 71.7652 20.55C71.3452 20.03 71.1352 19.41 71.1352 18.69C71.1352 17.95 71.3552 17.33 71.7952 16.83C72.2552 16.33 72.8952 16.08 73.7152 16.08C74.5352 16.08 75.1852 16.29 75.6652 16.71C76.1452 17.13 76.3852 17.76 76.3852 18.6C76.3852 19.44 76.1552 20.1 75.6952 20.58C75.2552 21.06 74.5952 21.3 73.7152 21.3Z" fill="black"/>
</svg>
